<svg height="13.017" viewBox="0 0 15.966 13.017" width="15.966" xmlns="http://www.w3.org/2000/svg">
  <defs>
    <style>.a {
      fill: #eeede7;
    }</style>
  </defs>
  <path class="a"
        d="M1359.6,5688.491a6.1,6.1,0,0,1-.772.28,3.4,3.4,0,0,0,.7-1.217.256.256,0,0,0-.085-.279.259.259,0,0,0-.292-.02,6.084,6.084,0,0,1-1.8.707,3.425,3.425,0,0,0-5.8,2.88,8.786,8.786,0,0,1-6.023-3.182.258.258,0,0,0-.422.033,3.406,3.406,0,0,0,.351,3.929,2.916,2.916,0,0,1-.459-.2.26.26,0,0,0-.253,0,.256.256,0,0,0-.129.217c0,.015,0,.03,0,.045a3.423,3.423,0,0,0,1.678,2.935c-.087-.009-.174-.021-.261-.038a.258.258,0,0,0-.241.083.254.254,0,0,0-.052.248,3.421,3.421,0,0,0,2.511,2.288,6.087,6.087,0,0,1-3.241.921,6.192,6.192,0,0,1-.726-.042.256.256,0,0,0-.169.47,9.27,9.27,0,0,0,5,1.459,8.907,8.907,0,0,0,6.889-3.013,9.527,9.527,0,0,0,2.387-6.225c0-.094,0-.188,0-.282a6.654,6.654,0,0,0,1.533-1.618.257.257,0,0,0-.318-.377Z"
        transform="translate(-1344 -5686.988)"/>
</svg>
